<?xml version="1.0" encoding="utf-8"?>
<!-- Generator: Adobe Illustrator 24.1.0, SVG Export Plug-In . SVG Version: 6.00 Build 0)  -->
<svg version="1.0" id="Capa_1" xmlns="http://www.w3.org/2000/svg" xmlns:xlink="http://www.w3.org/1999/xlink" x="0px" y="0px"
	 viewBox="0 0 512 512" style="enable-background:new 0 0 512 512;" xml:space="preserve">
<style type="text/css">
	.st0{fill:#FFB419;}
	.st1{fill:#FFB41E;}
	.st2{fill:#FF9F00;}
</style>
<g>
	<g>
		<path class="st0" d="M512,213.89v146.22c0,20.03-16.18,36.27-36.12,36.27h-26.51l10.17,39.52c2.06,7.96-6.8,14.24-13.6,9.64
			l-72.45-49.16H226.66c-19.74,0-35.77-15.89-36.11-35.62c-0.01-0.22-0.01-0.43-0.01-0.65V213.89c0-20.03,16.16-36.27,36.12-36.27
			h249.22C495.82,177.62,512,193.86,512,213.89z"/>
	</g>
	<g>
		<path class="st1" d="M355.89,337.74H172.76l-90.36,61.31c-8.47,5.75-19.52-2.08-16.96-12.02l12.69-49.29H45.05
			C20.17,337.74,0,317.49,0,292.51V110.14C0,85.15,20.17,64.9,45.05,64.9H355.9c24.88,0,45.05,20.25,45.05,45.23v182.37
			C400.95,317.49,380.77,337.74,355.89,337.74L355.89,337.74z"/>
	</g>
	<g>
		<path class="st2" d="M355.89,64.9h-5.88c-36.85,131-154.54,226.8-294.05,226.8c-19.11,0-37.82-1.82-55.96-5.26v6.06
			c0,24.98,20.17,45.23,45.05,45.23h33.07l-12.69,49.29c-2.56,9.94,8.49,17.77,16.96,12.02l90.37-61.31H355.9
			c24.88,0,45.05-20.25,45.05-45.23V110.14C400.95,85.15,380.77,64.9,355.89,64.9L355.89,64.9z"/>
	</g>
</g>
</svg>
