<?xml version="1.0" encoding="utf-8"?>
<!-- Generator: Adobe Illustrator 24.1.0, SVG Export Plug-In . SVG Version: 6.00 Build 0)  -->
<svg version="1.0" id="Capa_1" xmlns="http://www.w3.org/2000/svg" xmlns:xlink="http://www.w3.org/1999/xlink" x="0px" y="0px"
	 viewBox="0 0 512 512" style="enable-background:new 0 0 512 512;" xml:space="preserve">
<style type="text/css">
	.st0{fill:#FFF0C0;}
	.st1{fill:#FFE394;}
	.st2{fill:#FFDC00;}
	.st3{fill:#FFBF00;}
	.st4{fill:#FF9A1D;}
	.st5{fill:#FF8000;}
</style>
<g>
	<path class="st0" d="M486.15,478.87H25.85C11.57,478.87,0,467.3,0,453.02V168.97h512v284.05C512,467.3,500.43,478.87,486.15,478.87
		L486.15,478.87z"/>
	<path class="st1" d="M486.15,460.26H25.85C11.57,460.26,0,448.69,0,434.41v18.61c0,14.27,11.57,25.85,25.85,25.85h460.31
		c14.27,0,25.85-11.57,25.85-25.85v-18.61C512,448.69,500.43,460.26,486.15,460.26z"/>
	<path class="st2" d="M269.38,240.04l19.03,32.09c2.18,3.68,5.79,6.3,9.97,7.24l36.4,8.19c11.53,2.59,16.07,16.58,8.27,25.46
		l-24.64,28.02c-2.83,3.22-4.21,7.46-3.81,11.72l3.46,37.15c1.1,11.77-10.8,20.41-21.65,15.73l-34.26-14.77
		c-3.93-1.7-8.39-1.7-12.32,0l-34.26,14.77c-10.85,4.68-22.75-3.97-21.65-15.73l3.46-37.15c0.4-4.26-0.98-8.5-3.81-11.72
		l-24.64-28.02c-7.8-8.87-3.26-22.86,8.27-25.46l36.4-8.19c4.18-0.94,7.79-3.56,9.97-7.24l19.03-32.09
		C248.64,229.88,263.35,229.88,269.38,240.04L269.38,240.04z"/>
	<g>
		<path class="st3" d="M317.02,378.6c-3.11,7.66-12.17,12.07-20.6,8.44l-34.26-14.77c-3.93-1.7-8.39-1.7-12.32,0l-34.26,14.77
			c-8.43,3.64-17.49-0.77-20.6-8.44l-1.05,11.31c-1.1,11.77,10.8,20.41,21.65,15.73l34.26-14.77c3.93-1.7,8.39-1.7,12.32,0
			l34.26,14.77c10.85,4.68,22.75-3.97,21.65-15.73L317.02,378.6z"/>
	</g>
	<path class="st4" d="M486.15,75.64H25.85C11.57,75.64,0,87.21,0,101.49v67.48h512v-67.48C512,87.21,500.43,75.64,486.15,75.64
		L486.15,75.64z"/>
	<path class="st5" d="M0,150.36h512v18.61H0V150.36z"/>
	<path class="st2" d="M97.59,33.13c11.29,0,20.45,9.16,20.45,20.45v60c0,11.29-9.16,20.45-20.45,20.45s-20.45-9.16-20.45-20.45v-60
		C77.14,42.29,86.29,33.13,97.59,33.13z"/>
	<path class="st2" d="M414.41,33.13c-11.3,0-20.45,9.16-20.45,20.45v60c0,11.29,9.16,20.45,20.45,20.45
		c11.3,0,20.45-9.16,20.45-20.45v-60C434.86,42.29,425.71,33.13,414.41,33.13z"/>
	<g>
		<path class="st3" d="M97.59,115.42c-11.29,0-20.45-9.16-20.45-20.45v18.61c0,11.29,9.16,20.45,20.45,20.45s20.45-9.16,20.45-20.45
			V94.97C118.04,106.26,108.88,115.42,97.59,115.42z"/>
		<path class="st3" d="M414.41,115.42c-11.3,0-20.45-9.16-20.45-20.45v18.61c0,11.29,9.16,20.45,20.45,20.45
			c11.3,0,20.45-9.16,20.45-20.45V94.97C434.86,106.26,425.71,115.42,414.41,115.42z"/>
	</g>
</g>
</svg>
