<?xml version="1.0" encoding="utf-8"?>
<!-- Generator: Adobe Illustrator 24.1.0, SVG Export Plug-In . SVG Version: 6.00 Build 0)  -->
<svg version="1.0" id="Capa_1" xmlns="http://www.w3.org/2000/svg" xmlns:xlink="http://www.w3.org/1999/xlink" x="0px" y="0px"
	 viewBox="0 0 512 512" style="enable-background:new 0 0 512 512;" xml:space="preserve">
<style type="text/css">
	.st0{fill:#FF8B06;}
</style>
<g>
	<g>
		<path class="st0" d="M438.09,273.32h-39.6c4.04,11.05,6.24,22.98,6.24,35.4v149.65c0,5.18-0.9,10.16-2.54,14.78h65.46
			c24.45,0,44.35-19.89,44.35-44.35v-81.58C512,306.48,478.84,273.32,438.09,273.32z"/>
	</g>
</g>
<g>
	<g>
		<path class="st0" d="M107.26,308.73c0-12.43,2.21-24.35,6.24-35.4h-39.6C33.16,273.32,0,306.48,0,347.23v81.58
			c0,24.45,19.89,44.35,44.35,44.35h65.46c-1.64-4.63-2.54-9.6-2.54-14.78V308.73z"/>
	</g>
</g>
<g>
	<g>
		<path class="st0" d="M301.26,234.82h-90.52c-40.75,0-73.91,33.16-73.91,73.91v149.65c0,8.16,6.62,14.78,14.78,14.78h208.78
			c8.16,0,14.78-6.62,14.78-14.78V308.73C375.17,267.97,342.02,234.82,301.26,234.82z"/>
	</g>
</g>
<g>
	<g>
		<path class="st0" d="M256,38.84c-49.01,0-88.89,39.87-88.89,88.89c0,33.24,18.35,62.28,45.45,77.52
			c12.85,7.23,27.67,11.36,43.44,11.36s30.59-4.13,43.44-11.36c27.1-15.24,45.45-44.28,45.45-77.52
			C344.89,78.71,305.01,38.84,256,38.84z"/>
	</g>
</g>
<g>
	<g>
		<path class="st0" d="M99.92,121.69c-36.65,0-66.47,29.82-66.47,66.47s29.82,66.48,66.47,66.48c9.3,0,18.15-1.93,26.19-5.39
			c13.91-5.99,25.37-16.58,32.47-29.86c4.98-9.32,7.81-19.95,7.81-31.23C166.39,151.51,136.57,121.69,99.92,121.69z"/>
	</g>
</g>
<g>
	<g>
		<path class="st0" d="M412.08,121.69c-36.65,0-66.48,29.82-66.48,66.47c0,11.28,2.83,21.91,7.81,31.23
			c7.1,13.28,18.56,23.87,32.47,29.86c8.04,3.46,16.9,5.39,26.2,5.39c36.65,0,66.48-29.82,66.48-66.48S448.74,121.69,412.08,121.69z
			"/>
	</g>
</g>
</svg>
