<?xml version="1.0" encoding="utf-8"?>
<!-- Generator: Adobe Illustrator 24.1.0, SVG Export Plug-In . SVG Version: 6.00 Build 0)  -->
<svg version="1.0" id="Layer_1" xmlns="http://www.w3.org/2000/svg" xmlns:xlink="http://www.w3.org/1999/xlink" x="0px" y="0px"
	 viewBox="0 0 512 512" style="enable-background:new 0 0 512 512;" xml:space="preserve">
<style type="text/css">
	.st0{fill:#FF8B06;}
	.st1{fill:#CBB292;}
</style>
<path class="st0" d="M365.24,309.02c-35.73,0.72-70.26-12.96-95.8-37.97c-22.21-21.61-52.19-33.38-83.17-32.67
	c-26.08-0.34-51.57,7.84-72.58,23.31c-2.68,2.09-5.96,3.24-9.36,3.27c-4.55-0.04-8.86-2.03-11.83-5.47
	c-2.96-3.4-4.56-7.77-4.5-12.27V48.29c0-4.87,1.94-9.54,5.39-12.98c25.32-23.19,58.56-35.82,92.88-35.32
	c35.79-0.76,70.39,12.92,95.97,37.97c22.16,21.58,52.07,33.35,82.99,32.67c21.27,0.19,42.23-5.13,60.83-15.45
	c2.32-1.4,4.97-2.15,7.68-2.21c9.34,0.43,16.6,8.31,16.25,17.66v200.87c0.17,5.97-2.69,11.61-7.59,15.01
	C419.49,301.5,392.63,309.34,365.24,309.02z"/>
<path class="st1" d="M79.45,0.03L79.45,0.03c9.75,0,17.65,7.9,17.65,17.65v476.67c0,9.75-7.9,17.65-17.65,17.65l0,0
	c-9.75,0-17.65-7.9-17.65-17.65V17.68C61.8,7.94,69.7,0.03,79.45,0.03z"/>
</svg>
