<?xml version="1.0" encoding="UTF-8"?>
<svg xmlns="http://www.w3.org/2000/svg" xmlns:xlink="http://www.w3.org/1999/xlink" width="64pt" height="64pt" viewBox="0 0 64 64" version="1.1">
<defs>
<linearGradient id="linear0" gradientUnits="userSpaceOnUse" x1="59.85331" y1="83.3125" x2="59.85331" y2="100.73556" gradientTransform="matrix(0.483721,0,0,0.483721,-9.6,-9.6)">
<stop offset="0" style="stop-color:rgb(91.764706%,93.333333%,51.372549%);stop-opacity:1;"/>
<stop offset="1" style="stop-color:rgb(99.215686%,77.254902%,60%);stop-opacity:1;"/>
</linearGradient>
<linearGradient id="linear1" gradientUnits="userSpaceOnUse" x1="57.78125" y1="83.3125" x2="57.78125" y2="104.8125" gradientTransform="matrix(0.483721,0,0,0.483721,-9.6,-9.6)">
<stop offset="0" style="stop-color:rgb(91.764706%,93.333333%,51.372549%);stop-opacity:1;"/>
<stop offset="1" style="stop-color:rgb(99.215686%,77.254902%,60%);stop-opacity:1;"/>
</linearGradient>
<linearGradient id="linear2" gradientUnits="userSpaceOnUse" x1="57.78125" y1="24.52344" x2="57.78125" y2="146.35856" gradientTransform="matrix(0.483721,0,0,0.483721,-9.6,-9.6)">
<stop offset="0" style="stop-color:rgb(85.098039%,87.843137%,12.941176%);stop-opacity:1;"/>
<stop offset="1" style="stop-color:rgb(98.431373%,52.941176%,16.862745%);stop-opacity:1;"/>
</linearGradient>
<linearGradient id="linear3" gradientUnits="userSpaceOnUse" x1="86" y1="25.75431" x2="86" y2="147.21587" gradientTransform="matrix(0.483721,0,0,0.483721,-9.6,-9.6)">
<stop offset="0" style="stop-color:rgb(85.098039%,87.843137%,12.941176%);stop-opacity:1;"/>
<stop offset="1" style="stop-color:rgb(98.431373%,52.941176%,16.862745%);stop-opacity:1;"/>
</linearGradient>
<linearGradient id="linear4" gradientUnits="userSpaceOnUse" x1="86" y1="25.75431" x2="86" y2="147.21587" gradientTransform="matrix(0.483721,0,0,0.483721,-9.6,-9.6)">
<stop offset="0" style="stop-color:rgb(85.098039%,87.843137%,12.941176%);stop-opacity:1;"/>
<stop offset="1" style="stop-color:rgb(98.431373%,52.941176%,16.862745%);stop-opacity:1;"/>
</linearGradient>
<linearGradient id="linear5" gradientUnits="userSpaceOnUse" x1="111.53125" y1="25.75431" x2="111.53125" y2="147.21587" gradientTransform="matrix(0.483721,0,0,0.483721,-9.6,-9.6)">
<stop offset="0" style="stop-color:rgb(85.098039%,87.843137%,12.941176%);stop-opacity:1;"/>
<stop offset="1" style="stop-color:rgb(98.431373%,52.941176%,16.862745%);stop-opacity:1;"/>
</linearGradient>
<linearGradient id="linear6" gradientUnits="userSpaceOnUse" x1="111.53125" y1="25.75431" x2="111.53125" y2="147.21587" gradientTransform="matrix(0.483721,0,0,0.483721,-9.6,-9.6)">
<stop offset="0" style="stop-color:rgb(85.098039%,87.843137%,12.941176%);stop-opacity:1;"/>
<stop offset="1" style="stop-color:rgb(98.431373%,52.941176%,16.862745%);stop-opacity:1;"/>
</linearGradient>
<linearGradient id="linear7" gradientUnits="userSpaceOnUse" x1="111.53125" y1="25.75431" x2="111.53125" y2="147.21587" gradientTransform="matrix(0.483721,0,0,0.483721,-9.6,-9.6)">
<stop offset="0" style="stop-color:rgb(85.098039%,87.843137%,12.941176%);stop-opacity:1;"/>
<stop offset="1" style="stop-color:rgb(98.431373%,52.941176%,16.862745%);stop-opacity:1;"/>
</linearGradient>
<linearGradient id="linear8" gradientUnits="userSpaceOnUse" x1="57.78125" y1="25.75431" x2="57.78125" y2="147.21587" gradientTransform="matrix(0.483721,0,0,0.483721,-9.6,-9.6)">
<stop offset="0" style="stop-color:rgb(85.098039%,87.843137%,12.941176%);stop-opacity:1;"/>
<stop offset="1" style="stop-color:rgb(98.431373%,52.941176%,16.862745%);stop-opacity:1;"/>
</linearGradient>
<linearGradient id="linear9" gradientUnits="userSpaceOnUse" x1="98.09375" y1="25.75431" x2="98.09375" y2="147.21587" gradientTransform="matrix(0.483721,0,0,0.483721,-9.6,-9.6)">
<stop offset="0" style="stop-color:rgb(85.098039%,87.843137%,12.941176%);stop-opacity:1;"/>
<stop offset="1" style="stop-color:rgb(98.431373%,52.941176%,16.862745%);stop-opacity:1;"/>
</linearGradient>
<linearGradient id="linear10" gradientUnits="userSpaceOnUse" x1="98.09375" y1="25.75431" x2="98.09375" y2="147.21587" gradientTransform="matrix(0.483721,0,0,0.483721,-9.6,-9.6)">
<stop offset="0" style="stop-color:rgb(85.098039%,87.843137%,12.941176%);stop-opacity:1;"/>
<stop offset="1" style="stop-color:rgb(98.431373%,52.941176%,16.862745%);stop-opacity:1;"/>
</linearGradient>
</defs>
<g id="surface16520991">
<path style=" stroke:none;fill-rule:nonzero;fill:url(#linear0);" d="M 16.34375 39.128906 L 18.351562 36.976562 L 18.351562 32.851562 L 24.199219 32.851562 L 22.195312 30.699219 L 16.34375 30.699219 L 14.507812 32.851562 L 16.34375 32.851562 Z M 16.34375 39.128906 "/>
<path style=" stroke:none;fill-rule:nonzero;fill:url(#linear1);" d="M 12.5 32.851562 L 12.5 39.128906 L 14.507812 41.101562 L 22.195312 41.101562 L 24.199219 39.128906 L 24.199219 34.824219 L 20.355469 34.824219 L 18.351562 36.976562 L 22.195312 36.976562 L 22.195312 39.128906 L 14.507812 39.128906 L 14.507812 30.699219 Z M 12.5 32.851562 "/>
<path style=" stroke:none;fill-rule:nonzero;fill:url(#linear2);" d="M 29.398438 46.300781 L 7.300781 46.300781 L 7.300781 25.5 L 29.398438 25.5 Z M 9.898438 43.699219 L 26.800781 43.699219 L 26.800781 28.101562 L 9.898438 28.101562 Z M 9.898438 43.699219 "/>
<path style=" stroke:none;fill-rule:nonzero;fill:url(#linear3);" d="M 61.207031 2.25 C 60.777344 2.023438 60.261719 2.054688 59.863281 2.328125 L 54.90625 5.726562 L 49.890625 2.324219 C 49.445312 2.027344 48.863281 2.027344 48.425781 2.328125 L 43.46875 5.726562 L 38.449219 2.324219 C 38.007812 2.027344 37.425781 2.027344 36.984375 2.328125 L 32.027344 5.726562 L 27.011719 2.324219 C 26.566406 2.027344 25.984375 2.027344 25.546875 2.328125 L 20.589844 5.726562 L 15.570312 2.324219 C 15.128906 2.027344 14.546875 2.027344 14.105469 2.328125 L 9.148438 5.726562 L 4.132812 2.324219 C 3.734375 2.054688 3.21875 2.027344 2.792969 2.25 C 2.367188 2.476562 2.101562 2.917969 2.101562 3.398438 L 2.101562 57.871094 C 2.101562 60.09375 3.851562 61.898438 6 61.898438 L 46.300781 61.898438 C 46.644531 61.898438 46.976562 61.761719 47.21875 61.519531 L 61.519531 47.21875 C 61.761719 46.976562 61.898438 46.644531 61.898438 46.300781 L 61.898438 3.398438 C 61.898438 2.917969 61.632812 2.472656 61.207031 2.25 Z M 4.699219 57.871094 L 4.699219 5.851562 L 8.421875 8.375 C 8.863281 8.675781 9.445312 8.675781 9.886719 8.371094 L 14.84375 4.972656 L 19.863281 8.375 C 20.304688 8.675781 20.886719 8.675781 21.328125 8.371094 L 26.285156 4.972656 L 31.300781 8.375 C 31.742188 8.675781 32.324219 8.675781 32.765625 8.371094 L 37.722656 4.972656 L 42.742188 8.375 C 43.183594 8.675781 43.765625 8.675781 44.207031 8.371094 L 49.164062 4.972656 L 54.179688 8.375 C 54.621094 8.675781 55.203125 8.675781 55.644531 8.371094 L 59.300781 5.867188 L 59.300781 45 L 45 45 L 45 59.300781 L 6 59.300781 C 5.285156 59.300781 4.699219 58.660156 4.699219 57.871094 Z M 57.460938 47.601562 L 47.601562 57.460938 L 47.601562 47.601562 Z M 57.460938 47.601562 "/>
<path style=" stroke:none;fill-rule:nonzero;fill:url(#linear4);" d="M 56.699219 11.199219 L 7.300781 11.199219 L 7.300781 20.300781 L 56.699219 20.300781 Z M 54.101562 17.699219 L 9.898438 17.699219 L 9.898438 13.800781 L 54.101562 13.800781 Z M 54.101562 17.699219 "/>
<path style=" stroke:none;fill-rule:nonzero;fill:url(#linear5);" d="M 33.300781 25.5 L 55.398438 25.5 L 55.398438 28.101562 L 33.300781 28.101562 Z M 33.300781 25.5 "/>
<path style=" stroke:none;fill-rule:nonzero;fill:url(#linear6);" d="M 33.300781 32 L 55.398438 32 L 55.398438 34.601562 L 33.300781 34.601562 Z M 33.300781 32 "/>
<path style=" stroke:none;fill-rule:nonzero;fill:url(#linear7);" d="M 33.300781 38.5 L 55.398438 38.5 L 55.398438 41.101562 L 33.300781 41.101562 Z M 33.300781 38.5 "/>
<path style=" stroke:none;fill-rule:nonzero;fill:url(#linear8);" d="M 7.300781 48.898438 L 29.398438 48.898438 L 29.398438 51.5 L 7.300781 51.5 Z M 7.300781 48.898438 "/>
<path style=" stroke:none;fill-rule:nonzero;fill:url(#linear9);" d="M 33.300781 45 L 42.398438 45 L 42.398438 47.601562 L 33.300781 47.601562 Z M 33.300781 45 "/>
<path style=" stroke:none;fill-rule:nonzero;fill:url(#linear10);" d="M 33.300781 50.199219 L 42.398438 50.199219 L 42.398438 52.800781 L 33.300781 52.800781 Z M 33.300781 50.199219 "/>
</g>
</svg>
