<?xml version="1.0" encoding="utf-8"?>
<!-- Generator: Adobe Illustrator 24.1.0, SVG Export Plug-In . SVG Version: 6.00 Build 0)  -->
<svg version="1.0" id="Capa_1" xmlns="http://www.w3.org/2000/svg" xmlns:xlink="http://www.w3.org/1999/xlink" x="0px" y="0px"
	 viewBox="0 0 468.06 468.06" style="enable-background:new 0 0 468.06 468.06;" xml:space="preserve">
<style type="text/css">
	.st0{fill:#FF8B06;}
</style>
<g>
	<path class="st0" d="M431.38,0.22H36.68C16.46,0.22,0,16.67,0,36.9v394.27c0,20.22,16.46,36.68,36.68,36.68h394.7
		c20.23,0,36.68-16.46,36.68-36.68V36.9C468.06,16.67,451.59,0.22,431.38,0.22z M406.51,41.97c8.68,0,15.72,7.04,15.72,15.72
		c0,8.68-7.03,15.72-15.72,15.72s-15.72-7.04-15.72-15.72C390.8,49.01,397.83,41.97,406.51,41.97z M350.19,41.97
		c8.68,0,15.72,7.04,15.72,15.72c0,8.68-7.03,15.72-15.72,15.72c-8.69,0-15.72-7.04-15.72-15.72
		C334.48,49.01,341.51,41.97,350.19,41.97z M426.14,425.92H41.91V112.43h384.23L426.14,425.92L426.14,425.92z"/>
</g>
</svg>
