<?xml version="1.0" encoding="utf-8"?>
<!-- Generator: Adobe Illustrator 24.1.0, SVG Export Plug-In . SVG Version: 6.00 Build 0)  -->
<svg version="1.0" id="Capa_1" xmlns="http://www.w3.org/2000/svg" xmlns:xlink="http://www.w3.org/1999/xlink" x="0px" y="0px"
	 viewBox="0 0 512 512" style="enable-background:new 0 0 512 512;" xml:space="preserve">
<style type="text/css">
	.st0{fill:#FF8B06;}
	.st1{fill:#99B4CD;}
	.st2{fill:#D3E2EB;}
	.st3{fill:#7FA4C7;}
	.st4{fill:#FF6100;}
	.st5{fill:#595A66;}
	.st6{fill:#50515C;}
	.st7{fill:#B0C4D8;}
</style>
<g>
	<path class="st0" d="M418.13,162.14c0-87.66-69.56-159.07-156.49-162.04C170.27-3.02,94.87,68.92,93.88,160.33
		c-0.58,53.06,24.34,100.32,63.26,130.3c8.47,6.52,13.53,16.52,13.53,27.21v28.64h170.67v-28.64c0-10.68,5.05-20.68,13.51-27.19
		C393.33,261.01,418.13,214.47,418.13,162.14L418.13,162.14z"/>
	<g>
		<g>
			<g>
				<path class="st1" d="M51.2,169.86H17.07c-4.27,0-7.73-3.46-7.73-7.73s3.46-7.73,7.73-7.73H51.2c4.27,0,7.73,3.46,7.73,7.73
					S55.47,169.86,51.2,169.86z"/>
			</g>
			<g>
				<path class="st1" d="M49.09,289.33c-2.67,0-5.27-1.39-6.7-3.86c-2.13-3.7-0.87-8.42,2.83-10.55l29.56-17.07
					c3.69-2.13,8.42-0.87,10.55,2.83c2.13,3.7,0.87,8.42-2.83,10.55l-29.56,17.07C51.73,288.99,50.4,289.33,49.09,289.33z"/>
			</g>
			<g>
				<path class="st1" d="M462.91,289.33c-1.31,0-2.64-0.33-3.86-1.04l-29.56-17.07c-3.7-2.13-4.96-6.86-2.83-10.55
					c2.13-3.7,6.86-4.96,10.55-2.83l29.56,17.07c3.7,2.13,4.96,6.86,2.83,10.55C468.18,287.94,465.58,289.33,462.91,289.33
					L462.91,289.33z"/>
			</g>
			<g>
				<path class="st1" d="M494.93,169.86H460.8c-4.27,0-7.73-3.46-7.73-7.73s3.46-7.73,7.73-7.73h34.13c4.27,0,7.73,3.46,7.73,7.73
					S499.2,169.86,494.93,169.86z"/>
			</g>
			<g>
				<path class="st1" d="M433.37,67.46c-2.67,0-5.27-1.39-6.7-3.86c-2.13-3.7-0.87-8.42,2.83-10.55l29.56-17.07
					c3.69-2.13,8.42-0.87,10.55,2.83c2.13,3.7,0.87,8.42-2.83,10.55l-29.56,17.07C436.01,67.13,434.68,67.46,433.37,67.46
					L433.37,67.46z"/>
			</g>
			<g>
				<path class="st1" d="M78.63,67.46c-1.31,0-2.64-0.33-3.86-1.04L45.22,49.36c-3.7-2.13-4.96-6.86-2.83-10.55
					c2.13-3.7,6.86-4.96,10.55-2.83L82.5,53.04c3.7,2.13,4.96,6.86,2.83,10.55C83.9,66.08,81.3,67.46,78.63,67.46z"/>
			</g>
		</g>
	</g>
	<g>
		<g>
			<g>
				<path class="st2" d="M273.07,314.93c-4.27,0-7.73-3.46-7.73-7.73v-26.41h-18.68v26.41c0,4.27-3.46,7.73-7.73,7.73
					c-4.27,0-7.73-3.46-7.73-7.73v-26.41h-9.34c-13.67,0-24.79-11.12-24.79-24.79c0-13.67,11.12-24.79,24.79-24.79
					c13.67,0,24.79,11.12,24.79,24.79v9.34h18.68V256c0-13.67,11.12-24.79,24.79-24.79s24.79,11.12,24.79,24.79
					c0,13.67-11.12,24.79-24.79,24.79h-9.34v26.41C280.79,311.47,277.33,314.93,273.07,314.93z M280.79,265.34h9.34
					c5.15,0,9.34-4.19,9.34-9.34s-4.19-9.34-9.34-9.34c-5.15,0-9.34,4.19-9.34,9.34V265.34z M221.87,246.66
					c-5.15,0-9.34,4.19-9.34,9.34c0,5.15,4.19,9.34,9.34,9.34h9.34V256C231.21,250.85,227.02,246.66,221.87,246.66z"/>
			</g>
		</g>
		<path class="st1" d="M290.13,346.48h-68.27v-31.04c0-4.55,3.69-8.24,8.24-8.24h51.78c4.55,0,8.24,3.69,8.24,8.24V346.48z"/>
	</g>
	<g>
		<path class="st1" d="M334.87,100.79l-14.34-3.58c-0.9-2.62-1.95-5.17-3.15-7.63l7.6-12.66c2.02-3.36,1.49-7.66-1.28-10.42
			l-14.71-14.71c-2.77-2.77-7.07-3.3-10.42-1.28l-12.66,7.6c-2.46-1.2-5.01-2.25-7.63-3.15l-3.58-14.34
			c-0.95-3.8-4.36-6.46-8.28-6.46H245.6c-3.92,0-7.33,2.67-8.28,6.46l-3.58,14.34c-2.62,0.9-5.17,1.95-7.63,3.15l-12.66-7.6
			c-3.36-2.02-7.66-1.49-10.42,1.28L188.3,66.49c-2.77,2.77-3.3,7.07-1.28,10.42l7.6,12.66c-1.2,2.46-2.25,5.01-3.15,7.63
			l-14.34,3.58c-3.8,0.95-6.46,4.36-6.46,8.28v20.81c0,3.92,2.67,7.33,6.46,8.28l14.34,3.58c0.9,2.62,1.95,5.17,3.15,7.63
			l-7.6,12.66c-2.02,3.36-1.49,7.66,1.28,10.42l14.71,14.71c2.77,2.77,7.07,3.3,10.42,1.28l12.66-7.6c2.46,1.2,5.01,2.25,7.63,3.15
			l3.58,14.34c0.95,3.8,4.36,6.46,8.28,6.46h20.81c3.92,0,7.33-2.67,8.28-6.46l3.58-14.34c2.62-0.9,5.17-1.95,7.63-3.15l12.66,7.6
			c3.36,2.02,7.66,1.49,10.42-1.28l14.71-14.71c2.77-2.77,3.3-7.07,1.28-10.42l-7.6-12.66c1.2-2.46,2.25-5.01,3.15-7.63l14.34-3.58
			c3.8-0.95,6.46-4.36,6.46-8.28v-20.81C341.33,105.15,338.67,101.74,334.87,100.79L334.87,100.79z"/>
		<path class="st3" d="M334.87,100.79l-14.34-3.58c-0.9-2.62-1.95-5.17-3.15-7.63l7.6-12.66c2.02-3.36,1.49-7.66-1.28-10.42
			l-14.71-14.71c-2.77-2.77-7.07-3.3-10.42-1.28l-9.1,5.46L300,66.49c2.77,2.77,3.3,7.07,1.28,10.42l-7.6,12.66
			c1.2,2.46,2.25,5.01,3.15,7.63l14.34,3.58c3.8,0.95,6.46,4.36,6.46,8.28v20.81c0,3.92-2.67,7.33-6.46,8.28l-14.34,3.58
			c-0.9,2.62-1.95,5.17-3.15,7.63l7.6,12.66c2.02,3.36,1.49,7.66-1.28,10.42l-10.54,10.54l9.1,5.46c3.36,2.02,7.66,1.49,10.42-1.28
			l14.71-14.71c2.77-2.77,3.3-7.07,1.28-10.42l-7.6-12.66c1.2-2.46,2.25-5.01,3.15-7.63l14.34-3.58c3.8-0.95,6.46-4.36,6.46-8.28
			v-20.81C341.33,105.15,338.67,101.74,334.87,100.79z"/>
		
			<ellipse transform="matrix(0.9732 -0.23 0.23 0.9732 -20.597 62.0948)" class="st0" cx="256.07" cy="119.4" rx="17.07" ry="17.07"/>
	</g>
	<path class="st4" d="M261.64,0.1c-5.94-0.2-11.81-0.08-17.6,0.33c84.06,6.01,150.4,76.11,150.4,161.7
		c0,52.34-24.8,98.87-63.29,128.52c-8.46,6.52-13.51,16.51-13.51,27.19v28.64h23.69v-28.64c0-10.68,5.05-20.68,13.51-27.19
		c38.49-29.64,63.29-76.18,63.29-128.52C418.13,74.48,348.57,3.07,261.64,0.1L261.64,0.1z"/>
	<g>
		<path class="st5" d="M307.2,472.72H204.8v6.32c0,18.21,14.76,32.97,32.97,32.97h36.47c18.21,0,32.97-14.76,32.97-32.97V472.72z"/>
		<path class="st6" d="M283.51,472.72v6.32c0,18.21-14.76,32.97-32.97,32.97h23.69c18.21,0,32.97-14.76,32.97-32.97v-6.32H283.51z"
			/>
		<path class="st1" d="M341.33,370.32H170.67v82.83c0,13.66,11.07,24.72,24.72,24.72h121.22c13.66,0,24.72-11.07,24.72-24.72V370.32
			z"/>
		<path class="st3" d="M317.64,370.32v82.83c0,13.66-11.07,24.72-24.72,24.72h23.69c13.66,0,24.72-11.07,24.72-24.72v-82.83H317.64z
			"/>
		<path class="st2" d="M341.33,375.47c9.43,0,17.07-7.64,17.07-17.07s-7.64-17.07-17.07-17.07H170.67
			c-9.43,0-17.07,7.64-17.07,17.07s7.64,17.07,17.07,17.07H341.33z"/>
		<g>
			<g>
				<path class="st2" d="M341.33,417.33H170.67c-4.27,0-7.73-3.46-7.73-7.73s3.46-7.73,7.73-7.73h170.67c4.27,0,7.73,3.46,7.73,7.73
					C349.06,413.87,345.6,417.33,341.33,417.33z"/>
			</g>
		</g>
		<g>
			<g>
				<path class="st2" d="M341.33,451.46H170.67c-4.27,0-7.73-3.46-7.73-7.73c0-4.27,3.46-7.73,7.73-7.73h170.67
					c4.27,0,7.73,3.46,7.73,7.73C349.06,448,345.6,451.46,341.33,451.46z"/>
			</g>
		</g>
		<path class="st7" d="M341.33,341.33h-23.69c9.43,0,17.07,7.64,17.07,17.07s-7.64,17.07-17.07,17.07h23.69
			c9.43,0,17.07-7.64,17.07-17.07S350.76,341.33,341.33,341.33z"/>
	</g>
</g>
</svg>
