<?xml version="1.0" encoding="utf-8"?>
<!-- Generator: Adobe Illustrator 24.1.0, SVG Export Plug-In . SVG Version: 6.00 Build 0)  -->
<svg version="1.0" id="Layer_1" xmlns="http://www.w3.org/2000/svg" xmlns:xlink="http://www.w3.org/1999/xlink" x="0px" y="0px"
	 viewBox="0 0 512 512" style="enable-background:new 0 0 512 512;" xml:space="preserve">
<style type="text/css">
	.st0{fill:#808080;}
	.st1{fill:#505050;}
	.st2{fill:#FFAC2D;}
	.st3{fill:#FDFF00;}
	.st4{fill:#FF8B06;}
	.st5{fill:#FFE500;}
</style>
<path class="st0" d="M341.84,189.7c-8.29,0-15-6.71-15-15V91.46c0-33.89-31.82-61.46-70.92-61.46S185,57.57,185,91.46v83.23
	c0,8.29-6.72,15-15,15c-8.29,0-15-6.71-15-15V91.46C155,41.03,200.27,0,255.91,0c55.65,0,100.92,41.03,100.92,91.46v83.23
	C356.84,182.98,350.12,189.7,341.84,189.7z"/>
<path class="st1" d="M255.91,0v30c39.11,0,70.92,27.57,70.92,61.46v83.23c0,8.29,6.71,15,15,15c8.28,0,15-6.71,15-15V91.46
	C356.84,41.03,311.56,0,255.91,0z"/>
<path class="st2" d="M427.83,164.53H84c-8.29,0-15,6.72-15,15v191.83C69,448.91,132.09,512,209.64,512h92.56
	c77.55,0,140.64-63.09,140.64-140.64V179.53C442.83,171.25,436.11,164.53,427.83,164.53z"/>
<path class="st3" d="M255.91,384.34c-8.28,0-15-6.72-15-15V307.2c0-8.29,6.72-15,15-15c8.29,0,15,6.71,15,15v62.14
	C270.91,377.62,264.2,384.34,255.91,384.34z"/>
<path class="st4" d="M427.83,164.53H255.91V512h46.28c77.55,0,140.64-63.09,140.64-140.64V179.53
	C442.83,171.25,436.11,164.53,427.83,164.53z"/>
<path class="st5" d="M270.91,369.34V307.2c0-8.29-6.71-15-15-15v92.14C264.2,384.34,270.91,377.62,270.91,369.34z"/>
</svg>
