<?xml version="1.0" encoding="utf-8"?>
<!-- Generator: Adobe Illustrator 24.1.0, SVG Export Plug-In . SVG Version: 6.00 Build 0)  -->
<svg version="1.0" id="Layer_1" xmlns="http://www.w3.org/2000/svg" xmlns:xlink="http://www.w3.org/1999/xlink" x="0px" y="0px"
	 viewBox="0 0 480 480" style="enable-background:new 0 0 480 480;" xml:space="preserve">
<style type="text/css">
	.st0{fill:url(#SVGID_1_);}
	.st1{fill:url(#SVGID_2_);}
</style>
<g>
	
		<linearGradient id="SVGID_1_" gradientUnits="userSpaceOnUse" x1="-3.1999" y1="233.8933" x2="476.8001" y2="249.8933" gradientTransform="matrix(1 0 0 -1 0 482)">
		<stop  offset="0" style="stop-color:#FFF200"/>
		<stop  offset="0.0182" style="stop-color:#FFEE00"/>
		<stop  offset="0.2122" style="stop-color:#FFCB02"/>
		<stop  offset="0.4082" style="stop-color:#FFAF04"/>
		<stop  offset="0.6045" style="stop-color:#FF9B05"/>
		<stop  offset="0.8014" style="stop-color:#FF8F06"/>
		<stop  offset="1" style="stop-color:#FF8B06"/>
	</linearGradient>
	<path class="st0" d="M480,277.77v-75.54l-47.27-15.75c-4.34-15.67-10.6-30.74-18.62-44.88l22.29-44.59L383,43.59l-44.6,22.29
		c-14.14-8.02-29.21-14.27-44.88-18.62L277.77,0h-75.54l-15.75,47.26c-15.66,4.35-30.74,10.61-44.88,18.62L97,43.59L43.59,97
		l22.29,44.6c-8.02,14.14-14.28,29.21-18.62,44.88L0,202.23v75.54l47.27,15.75c4.34,15.67,10.6,30.74,18.62,44.88L43.59,383
		L97,436.41l44.6-22.29c14.14,8.02,29.22,14.27,44.89,18.62L202.23,480h75.54l15.75-47.26c15.66-4.35,30.74-10.61,44.88-18.62
		l44.59,22.29L436.4,383l-22.29-44.6c8.02-14.14,14.28-29.22,18.62-44.89L480,277.77z M418.4,285.34
		c-4.35,17.12-11.15,33.52-20.2,48.7l-2.25,3.76l21.03,42.05l-37.14,37.11l-42.05-21.02l-3.76,2.24
		c-15.17,9.06-31.58,15.88-48.7,20.24l-4.24,1.08L266.23,464h-52.46l-14.86-44.56l-4.24-1.08c-17.13-4.35-33.53-11.15-48.7-20.2
		l-3.76-2.24l-42.05,21.02l-37.11-37.11l21.04-42.05l-2.25-3.76c-9.05-15.17-15.85-31.57-20.2-48.7l-1.07-4.24L16,266.23v-52.46
		l44.57-14.87l1.07-4.24c4.35-17.12,11.15-33.52,20.2-48.7l2.25-3.76l-21.04-42.05l37.11-37.11l42.05,21.02l3.76-2.24
		c15.17-9.05,31.58-15.85,48.7-20.2l4.24-1.08L213.77,16h52.46l14.86,44.56l4.24,1.08c17.13,4.35,33.53,11.15,48.7,20.2l3.76,2.24
		l42.05-21.02l37.11,37.11l-21.04,42.05l2.25,3.76c9.06,15.17,15.88,31.57,20.24,48.7l1.07,4.24L464,213.77v52.46l-44.57,14.87
		L418.4,285.34z"/>
	
		<linearGradient id="SVGID_2_" gradientUnits="userSpaceOnUse" x1="-3.1999" y1="233.8933" x2="476.8001" y2="249.8933" gradientTransform="matrix(1 0 0 -1 0 482)">
		<stop  offset="0" style="stop-color:#FFF200"/>
		<stop  offset="1" style="stop-color:#FF8B06"/>
	</linearGradient>
	<path class="st1" d="M240,112c-70.69,0-128,57.31-128,128s57.31,128,128,128s128-57.31,128-128
		C367.92,169.34,310.66,112.08,240,112z M240,352c-61.86,0-112-50.14-112-112s50.14-112,112-112s112,50.14,112,112
		C351.93,301.83,301.83,351.93,240,352z"/>
</g>
</svg>
