<svg id="SvgjsSvg1001" width="288" height="288" xmlns="http://www.w3.org/2000/svg" version="1.1" xmlns:xlink="http://www.w3.org/1999/xlink" xmlns:svgjs="http://svgjs.com/svgjs"><defs id="SvgjsDefs1002"></defs><g id="SvgjsG1008" transform="matrix(0.9167,0,0,0.9167,12.226321441698076,12.349126651954663)"><svg xmlns="http://www.w3.org/2000/svg" width="288" height="288" fill="none" viewBox="0 0 29 26"><path fill="#ff8b06" d="M3.70203 12.83C3.80973 10.5679 4.52746 8.36328 5.79692 6.45767C7.44356 3.98584 9.91215 2.17681 12.7652 1.35118C15.6182 0.525546 18.6714 0.736645 21.3836 1.94706C24.0959 3.15747 26.292 5.28903 27.5828 7.96395C28.8736 10.6389 29.1757 13.6844 28.4356 16.5608C27.6954 19.4372 25.9608 21.9586 23.5392 23.6783C21.1176 25.398 18.1654 26.2048 15.2058 25.9557C12.9241 25.7637 10.7517 24.9537 8.91385 23.6305L10.3646 22.1797C11.8479 23.1789 13.5709 23.7912 15.3752 23.943C17.8593 24.152 20.3372 23.4748 22.3698 22.0315C24.4023 20.5881 25.8582 18.4717 26.4794 16.0574C27.1007 13.6432 26.8471 11.0869 25.7637 8.84177C24.6803 6.5966 22.837 4.8075 20.5605 3.79155C18.284 2.7756 15.7213 2.59842 13.3266 3.2914C10.932 3.98439 8.86001 5.50279 7.47791 7.57749C6.47405 9.08442 5.88123 10.8141 5.74041 12.5971L3.70203 12.83Z" class="color606060 svgShape"></path><path fill="#ff8b06" d="M6.13995 18.8439C5.68535 19.6508 4.54491 19.7084 4.01143 18.9513L.958539 14.619C.386676 13.8075.933875 12.6841 1.92538 12.6341L7.5797 12.3489C8.57121 12.2988 9.22868 13.3615 8.74138 14.2264L6.13995 18.8439zM13.6602 6.30019H15.1051V15.5022H13.6602V6.30019z" class="color606060 svgShape"></path><path fill="#ff8b06" d="M13.6602 15.5022L14.4537 14.2946L22.1439 19.3479L21.3504 20.5555L13.6602 15.5022Z" class="color606060 svgShape"></path></svg></g></svg>